<?xml version="1.0" encoding="UTF-8"?>
<svg width="215px" height="210px" viewBox="0 0 215 210" version="1.1" xmlns="http://www.w3.org/2000/svg" xmlns:xlink="http://www.w3.org/1999/xlink">
    <!-- Generator: Sketch 47.1 (45422) - http://www.bohemiancoding.com/sketch -->
    <title>Group</title>
    <desc>Created with Sketch.</desc>
    <defs></defs>
    <g id="Page-1" stroke="none" stroke-width="1" fill="none" fill-rule="evenodd">
        <g id="Group">
            <path d="M28.8984426,5.68848695 C25.6958354,2.64929707 26.678734,0.185546875 31.1051864,0.185546875 L154.228798,0.185546875 C158.650156,0.185546875 159.831324,2.83484089 156.856864,6.1140973 L113.712861,53.6791189 C110.742943,56.9533669 105.428681,61.6931001 101.838558,64.2688851 L101.951763,64.1876645 C98.3636835,66.7619829 92.8584719,66.3848715 89.6561373,63.3459402 L28.8984426,5.68848695 Z" id="Rectangle-5" fill="#FF5757"></path>
            <path d="M0,121.15444 C0,116.736579 2.57210595,115.637143 5.75656018,118.709976 L57.8468881,168.974436 C61.0261485,172.042258 61.0394005,177.031631 57.8802807,180.114813 L35.8194811,201.645317 C35.8194811,201.645317 31.4945205,207.047796 28.9926253,208.155194 C26.49073,209.262593 21.5270744,209.155194 21.5270744,209.155194 L8.00058946,209.155194 C3.58198591,209.155194 0,205.56709 0,201.155949 L0,121.15444 Z" id="Rectangle-3" fill="#859C27"></path>
            <path d="M0,5.15013114 C0,0.73622221 2.57864362,-0.362907532 5.76957704,2.70478466 L118.373759,110.959932 C121.560208,114.023314 121.589462,119.017432 118.445067,122.108741 L80.0377044,159.867685 C80.0377044,159.867685 77.3470675,162.772334 74.095408,162.586092 C70.8437485,162.399851 67.6477893,159.158042 67.6477893,159.158042 L12.2155118,105.469909 C12.2155118,105.469909 8.05823127,101.90538 5.06178996,97.5376007 C2.06534864,93.1698216 0,87.6639014 0,87.6639014 L0,5.15013114 Z" id="Rectangle-4" fill="#754C78"></path>
            <path d="M146.69924,138.17391 L212.952806,203.166267 C216.104559,206.258023 215.085119,208.764387 210.665992,208.764387 L57.3858878,208.764387 C52.9711617,208.764387 51.9446972,206.265814 55.1160812,203.161284 L122.921047,136.78567 C122.921047,136.78567 131.330705,130 134.915258,130 C138.49981,130 146.69924,138.17391 146.69924,138.17391 Z" id="Rectangle-2" fill="#39B7CD"></path>
            <path d="M120.438898,42.9336111 C120.438898,38.5115469 124.014904,34.8658894 128.428146,34.7907731 L212.925964,33.3525626 C217.338304,33.2774616 221.00832,36.8031496 221.123079,41.223716 L221.312338,48.5140178 C221.312338,48.5140178 218.291364,85.605221 198.216204,102.580158 C178.141043,119.555095 139.919683,117.337137 139.919683,117.337137 L128.418688,116.504481 C124.011572,116.185412 120.438898,112.341772 120.438898,107.9199 L120.438898,42.9336111 Z" id="Rectangle" fill="#FCD116" transform="translate(170.875618, 75.391863) rotate(-44.000000) translate(-170.875618, -75.391863) "></path>
        </g>
    </g>
</svg>